<svg xmlns="http://www.w3.org/2000/svg" width="23.457" height="23.458" viewBox="0 0 23.457 23.458"><path d="M23.236 11.201L12.258.221a.748.748 0 0 0-1.059 0L.219 11.201a.748.748 0 1 0 1.059 1.059l.719-.719v11.17a.75.75 0 0 0 .748.748h17.966a.75.75 0 0 0 .75-.748v-11.17l.719.719a.74.74 0 0 0 .527.219.748.748 0 0 0 .529-1.278zM9.482 21.961v-7.486h4.492v7.486H9.482zm10.481 0h-4.492v-8.234a.747.747 0 0 0-.748-.748h-5.99a.748.748 0 0 0-.748.748v8.234h-4.49V10.043l8.234-8.232 8.234 8.232v11.918z"/></svg>
