<svg xmlns="http://www.w3.org/2000/svg" width="23.457" height="23.458" viewBox="0 0 23.457 23.458"><path d="M22.708 1.498H3.743a.747.747 0 0 0-.748.748v2.246H.749A.748.748 0 0 0 0 5.24v15.971c0 .414.335.748.749.748h18.965a.748.748 0 0 0 .748-.748v-2.246h2.246a.749.749 0 0 0 .749-.748V2.246a.748.748 0 0 0-.749-.748zM4.491 2.994h17.468v9.372l-4.296-4.358a.747.747 0 0 0-1.065 0l-1.142 1.156-3.371-3.418a.771.771 0 0 0-1.066 0l-6.527 6.621V2.994zm14.475 17.469H1.497V5.988h1.498V18.218c0 .412.334.748.748.748h15.223v1.497zM4.491 17.469V14.5l7.061-7.162 3.371 3.42a.775.775 0 0 0 1.066 0L17.13 9.6l4.829 4.899v2.971H4.491z"/></svg>
