<svg xmlns="http://www.w3.org/2000/svg" width="23.457" height="23.458" viewBox="0 0 23.457 23.458"><path d="M22.707 23.458H.749A.749.749 0 0 1 0 22.709v-2.746c0-4.443 8.276-6.238 11.728-6.238s11.729 1.795 11.729 6.238v2.746a.75.75 0 0 1-.75.749zm-21.21-1.499h20.462v-1.996c0-2.941-6.623-4.742-10.231-4.742-3.606 0-10.231 1.801-10.231 4.742v1.996zm10.231-9.482a6.245 6.245 0 0 1-6.239-6.238A6.246 6.246 0 0 1 11.728 0a6.246 6.246 0 0 1 6.239 6.238 6.245 6.245 0 0 1-6.239 6.239zm0-10.978a4.746 4.746 0 0 0-4.741 4.74 4.745 4.745 0 0 0 4.741 4.74 4.745 4.745 0 0 0 4.741-4.74 4.746 4.746 0 0 0-4.741-4.74z"/></svg>
